<?xml version="1.0" standalone="no"?>
<!DOCTYPE svg PUBLIC "-//W3C//DTD SVG 20010904//EN"
 "http://www.w3.org/TR/2001/REC-SVG-20010904/DTD/svg10.dtd">
<svg version="1.0" xmlns="http://www.w3.org/2000/svg"
 width="554.000000pt" height="554.000000pt" viewBox="0 0 554.000000 554.000000"
 preserveAspectRatio="xMidYMid meet">
<metadata>
Created by potrace 1.15, written by Peter Selinger 2001-2017
</metadata>
<g transform="translate(0.000000,554.000000) scale(0.100000,-0.100000)"
fill="#000000" stroke="none">
<path d="M630 3931 l0 -88 79 -7 c144 -13 230 -47 264 -106 8 -14 20 -49 26
-78 15 -71 15 -1759 1 -1851 -25 -151 -86 -197 -272 -208 l-98 -6 0 -93 0 -94
1163 2 1162 3 6 185 c3 102 8 295 10 430 l4 245 -88 3 c-65 2 -88 -1 -91 -10
-2 -7 -15 -62 -30 -123 -38 -160 -91 -262 -185 -356 -133 -134 -205 -153 -556
-154 -264 0 -306 6 -371 48 -84 55 -95 133 -92 632 l3 360 190 -1 c113 0 211
-6 241 -13 95 -23 141 -82 159 -206 3 -22 8 -55 11 -72 l5 -33 90 0 89 0 -2
433 -3 432 -92 3 -91 3 -7 -53 c-20 -163 -42 -209 -120 -248 -47 -23 -60 -24
-262 -28 l-213 -4 0 461 0 461 328 0 c340 0 423 -7 503 -42 99 -42 185 -167
239 -345 l22 -73 103 0 102 0 7 64 c15 151 104 289 225 351 54 27 194 45 359
45 l153 0 -3 -1012 c-4 -1101 -1 -1051 -60 -1123 -41 -49 -80 -67 -168 -74
l-75 -6 0 -90 0 -90 583 -3 583 -2 -3 92 -3 93 -62 6 c-71 7 -163 48 -193 86
-44 57 -44 48 -48 1111 l-3 1012 170 0 c276 0 364 -30 457 -153 61 -81 94
-154 108 -238 12 -78 8 -76 124 -71 l72 4 0 339 0 339 -2225 0 -2225 0 0 -89z"/>
<path d="M1200 10 c0 -7 527 -10 1560 -10 1033 0 1560 3 1560 10 0 7 -527 10
-1560 10 -1033 0 -1560 -3 -1560 -10z"/>
</g>
</svg>
